<?xml version="1.0" encoding="utf-8"?>
<?xml-stylesheet type="text/xsl" href="rss1.xsl"?>
<rss version="2.0" xmlns:atom="http://www.w3.org/2005/Atom" xmlns:content="http://purl.org/rss/1.0/modules/content/" xmlns:dc="http://purl.org/dc/elements/1.1/" xmlns:media="http://search.yahoo.com/mrss/">
<channel>
 <title>Getty</title>
 <link>http://www.gettyimg.com/</link>
 <atom:link href="http://www.gettyimg.com/" rel="self" type="application/rss+xml" />

 
                <item>
                <title><![CDATA[【Requests】[REQ CAP] - BMAs 2020 1080i HDTV Backhaul FLAC 5.1 H.264-TrollHD [RE-UP]]]></title>
                <link><![CDATA[https://sharemania.us/threads/bmas-2020-1080i-hdtv-backhaul-flac-5-1-h-264-trollhd-re-up.247563/]]></link>
                <description><![CDATA[<article>
<blockquote class="messageText SelectQuoteContainer ugc baseHtml">
can anyone reup this file? thanks <img src="styles/default/xenforo/smilies/big_smile-48.png" class="mceSmilie" alt=":)" title="Smile    :)"><br>
<br>
<a href="https://sharemania.us/threads/billboard-music-awards-s01e28-2020-1080i-hdtv-backhaul-flac-5-1-h-264-trollhd.200846/#post-3737925" class="internalLink">https://sharemania.us/threads/billb...l-flac-5-1-h-264-trollhd.200846/#post-3737925</a>
<div class="messageTextEndMarker">&nbsp;</div>
</blockquote>
</article>]]></description>
                <author><![CDATA[bebesab]]></author>
                </item>

                
                <item>
                <title><![CDATA[【Cinema Center】MOVIE - Barbie.as.Rapunzel.2002.1080p.AMZN.WEB-DL.MULTi.H264-Sebastian09]]></title>
                <link><![CDATA[https://sharemania.us/threads/barbie-as-rapunzel-2002-1080p-amzn-web-dl-multi-h264-sebastian09.247562/]]></link>
                <description><![CDATA[<article>
<blockquote class="messageText SelectQuoteContainer ugc baseHtml">
General<br>
Unique ID : 292665986366631635271661789746270195757 (0xDC2D6B2EEBDA67037B085082072A502D)<br>
Complete name : Barbie.as.Rapunzel.2002.1080p.AMZN.WEB-DL.MULTi.H264-Sebastian09.mkv<br>
Format : Matroska<br>
Format version : Version 4<br>
File size : 6.32 GiB<br>
Duration : 1 h 27 min<br>
Overall bit rate : 10.3 Mb/s<br>
Frame rate : 23.976 FPS<br>
Encoded date : 2024-06-10 19:07:13 UTC<br>
Writing application : mkvmerge v82.0 ('I'm The President') 64-bit<br>
Writing library : libebml v1.4.5 + libmatroska v1.7.1<br>
<br>
Video<br>
ID : 1<br>
Format : AVC<br>
Format/Info : Advanced Video Codec<br>
Format profile : High@L4<br>
Format settings : CABAC / 4 Ref Frames<br>
Format settings, CABAC : Yes<br>
Format settings, Reference frames : 4 frames<br>
Codec ID : V_MPEG4/ISO/AVC<br>
Duration : 1 h 27 min<br>
Bit rate mode : Constant<br>
Bit rate : 9 229 kb/s<br>
Nominal bit rate : 10 000 kb/s<br>
Width : 1 920 pixels<br>
Height : 1 080 pixels<br>
Display aspect ratio : 16:9<br>
Frame rate mode : Constant<br>
Frame rate : 23.976 (24000/1001) FPS<br>
Color space : YUV<br>
Chroma subsampling : 4:2:0<br>
Bit depth : 8 bits<br>
Scan type : Progressive<br>
Bits/(Pixel*Frame) : 0.186<br>
Stream size : 5.65 GiB (89%)<br>
Default : Yes<br>
Forced : No<br>
Color range : Limited<br>
Color primaries : BT.709<br>
Transfer characteristics : BT.709<br>
Matrix coefficients : BT.709<br>
<br>
Audio #1<br>
ID : 2<br>
Format : E-AC-3<br>
Format/Info : Enhanced AC-3<br>
Commercial name : Dolby Digital Plus<br>
Codec ID : A_EAC3<br>
Duration : 1 h 27 min<br>
Bit rate mode : Constant<br>
Bit rate : 640 kb/s<br>
Channel(s) : 6 channels<br>
Channel layout : L R C LFE Ls Rs<br>
Sampling rate : 48.0 kHz<br>
Frame rate : 31.250 FPS (1536 SPF)<br>
Bit depth : 32 bits<br>
Compression mode : Lossy<br>
Stream size : 401 MiB (6%)<br>
Title : English<br>
Language : English<br>
Service kind : Complete Main<br>
Default : No<br>
Forced : No<br>
Dialog Normalization : -31 dB<br>
compr : -0.28 dB<br>
dialnorm_Average : -31 dB<br>
dialnorm_Minimum : -31 dB<br>
dialnorm_Maximum : -31 dB<br>
<br>
Audio #2<br>
ID : 3<br>
Format : E-AC-3<br>
Format/Info : Enhanced AC-3<br>
Commercial name : Dolby Digital Plus<br>
Codec ID : A_EAC3<br>
Duration : 1 h 27 min<br>
Bit rate mode : Constant<br>
Bit rate : 224 kb/s<br>
Channel(s) : 2 channels<br>
Channel layout : L R<br>
Sampling rate : 48.0 kHz<br>
Frame rate : 31.250 FPS (1536 SPF)<br>
Bit depth : 32 bits<br>
Compression mode : Lossy<br>
Stream size : 140 MiB (2%)<br>
Title : English<br>
Language : English<br>
Service kind : Complete Main<br>
Default : No<br>
Forced : No<br>
Dialog Normalization : -31 dB<br>
compr : -0.28 dB<br>
dsurmod : Not Dolby Surround encoded<br>
dialnorm_Average : -31 dB<br>
dialnorm_Minimum : -31 dB<br>
dialnorm_Maximum : -31 dB<br>
<br>
Audio #3<br>
ID : 4<br>
Format : E-AC-3<br>
Format/Info : Enhanced AC-3<br>
Commercial name : Dolby Digital Plus<br>
Codec ID : A_EAC3<br>
Duration : 1 h 27 min<br>
Bit rate mode : Constant<br>
Bit rate : 224 kb/s<br>
Channel(s) : 2 channels<br>
Channel layout : L R<br>
Sampling rate : 48.0 kHz<br>
Frame rate : 31.250 FPS (1536 SPF)<br>
Bit depth : 32 bits<br>
Compression mode : Lossy<br>
Stream size : 140 MiB (2%)<br>
Title : Polski<br>
Language : Polish<br>
Service kind : Complete Main<br>
Default : Yes<br>
Forced : No<br>
VENDOR_ID : [0][0][0][0]<br>
Dialog Normalization : -31 dB<br>
compr : -0.28 dB<br>
dsurmod : Not Dolby Surround encoded<br>
dialnorm_Average : -31 dB<br>
dialnorm_Minimum : -31 dB<br>
dialnorm_Maximum : -31 dB<br>
<br>
Text #1<br>
ID : 5<br>
Format : UTF-8<br>
Codec ID : S_TEXT/UTF8<br>
Codec ID/Info : UTF-8 Plain Text<br>
Duration : 1 h 25 min<br>
Bit rate : 36 b/s<br>
Frame rate : 0.187 FPS<br>
Count of elements : 955<br>
Stream size : 23.0 KiB (0%)<br>
Title : Polski<br>
Writing library : Lavc60.3.100 srt<br>
Language : Polish<br>
Default : No<br>
Forced : No<br>
<br>
Text #2<br>
ID : 6<br>
Format : UTF-8<br>
Codec ID : S_TEXT/UTF8<br>
Codec ID/Info : UTF-8 Plain Text<br>
Duration : 1 h 19 min<br>
Bit rate : 49 b/s<br>
Frame rate : 0.223 FPS<br>
Count of elements : 1057<br>
Stream size : 28.6 KiB (0%)<br>
Title : English [CC]<br>
Writing library : Lavc60.3.100 srt<br>
Language : English<br>
Default : No<br>
Forced : No<br>
<br>
<div class="bbCodeBlock bbCodeVfcHH HiddenContent">
<div class="attribution type">Hidden Content:</div>
<blockquote>You must reply before you can see the hidden data contained here.</blockquote>
</div>
<div class="messageTextEndMarker">&nbsp;</div>
</blockquote>
</article>]]></description>
                <author><![CDATA[BestBoy_PL]]></author>
                </item>

                </channel></rss>